<svg width="24" height="24" viewBox="0 0 24 24" fill="none" xmlns="http://www.w3.org/2000/svg">
<g clip-path="url(#clip0_1204_7383)">
<path d="M14.62 2.66238C14.8098 2.71549 14.9873 2.80548 15.1423 2.92722C15.2973 3.04895 15.4268 3.20004 15.5234 3.37185C15.62 3.54366 15.6817 3.73283 15.7052 3.92852C15.7286 4.12422 15.7133 4.32262 15.66 4.51238L11.229 20.2994C11.1216 20.6825 10.8664 21.0072 10.5195 21.2022C10.1727 21.3971 9.76259 21.4463 9.37948 21.3389C8.99638 21.2315 8.67163 20.9763 8.47669 20.6294C8.28174 20.2826 8.23257 19.8725 8.33998 19.4894L12.771 3.70038C12.8242 3.51067 12.9143 3.33329 13.036 3.17839C13.1578 3.02349 13.3089 2.8941 13.4807 2.79761C13.6525 2.70113 13.8417 2.63944 14.0373 2.61606C14.233 2.59269 14.4313 2.60809 14.621 2.66138L14.62 2.66238ZM7.55998 6.69738C7.84088 6.97863 7.99866 7.35988 7.99866 7.75738C7.99866 8.15489 7.84088 8.53613 7.55998 8.81738L4.37998 12.0004L7.56198 15.1824C7.84324 15.4638 8.0012 15.8454 8.00111 16.2432C8.00101 16.6411 7.84288 17.0226 7.56148 17.3039C7.28009 17.5851 6.89849 17.7431 6.50063 17.743C6.10277 17.7429 5.72124 17.5848 5.43998 17.3034L1.19698 13.0604C0.91608 12.7791 0.758301 12.3979 0.758301 12.0004C0.758301 11.6029 0.91608 11.2216 1.19698 10.9404L5.43898 6.69738C5.57828 6.55799 5.74368 6.44742 5.92573 6.37198C6.10778 6.29654 6.30292 6.2577 6.49998 6.2577C6.69704 6.2577 6.89218 6.29654 7.07423 6.37198C7.25628 6.44742 7.42068 6.55799 7.55998 6.69738ZM16.44 8.81738C16.2926 8.68006 16.1744 8.51446 16.0924 8.33046C16.0104 8.14646 15.9664 7.94783 15.9628 7.74643C15.9592 7.54502 15.9963 7.34497 16.0717 7.15819C16.1472 6.97141 16.2595 6.80174 16.4019 6.65931C16.5443 6.51687 16.714 6.40458 16.9008 6.32914C17.0876 6.2537 17.2876 6.21665 17.489 6.2202C17.6904 6.22375 17.8891 6.26784 18.0731 6.34982C18.2571 6.43181 18.4227 6.55001 18.56 6.69738L22.803 10.9394C23.0842 11.2207 23.2422 11.6021 23.2422 11.9999C23.2422 12.3976 23.0842 12.7791 22.803 13.0604L18.561 17.3034C18.4217 17.4427 18.2564 17.5533 18.0744 17.6287C17.8924 17.7041 17.6973 17.743 17.5003 17.743C17.3033 17.7431 17.1083 17.7043 16.9262 17.629C16.7442 17.5536 16.5788 17.4432 16.4395 17.3039C16.3001 17.1646 16.1896 16.9993 16.1142 16.8173C16.0387 16.6353 15.9999 16.4402 15.9999 16.2432C15.9998 16.0462 16.0386 15.8512 16.1139 15.6691C16.1893 15.4871 16.2997 15.3217 16.439 15.1824L19.621 12.0004L16.44 8.81738Z" fill="white"/>
</g>
<defs>
<clipPath id="clip0_1204_7383">
<rect width="24" height="24" fill="white"/>
</clipPath>
</defs>
</svg>
